<?xml version="1.0" encoding="UTF-8" standalone="no"?> <svg height="512pt" viewBox="-61 0 512 512" width="512pt" xmlns="http://www.w3.org/2000/svg"><path d="m330 120v-51.214844l-68.785156-68.785156h-132.429688l-68.785156 68.785156v51.214844h-60v392h390v-392zm-188.785156-90h107.570312l30 30c-34.253906 0-130.589844 0-167.570312 0zm158.785156 60v60h-30v-60zm-60 0v30h-90v-30zm-150 0h30v60h-30zm270 392h-330v-332h30v30h90v-30h90v30h90v-30h30zm0 0"/><path d="m270 301c0-56.9375-63.78125-101.488281-66.496094-103.355469l-8.503906-5.855469-8.503906 5.855469c-2.714844 1.867188-66.496094 46.417969-66.496094 103.355469 0 46.859375 43.191406 85.320312 60 98.515625v52.484375h30v-52.484375c16.808594-13.195313 60-51.65625 60-98.515625zm-90-30v88.238281c-14.367188-14.738281-30-35.902343-30-58.238281 0-30.890625 29.902344-59.550781 45-72.046875 15.105469 12.507813 45 41.160156 45 72.046875 0 22.339844-15.632812 43.503906-30 58.238281v-88.238281zm0 0"/></svg>