<?xml version="1.0" encoding="UTF-8" standalone="no"?> <svg id="Layer_1" data-name="Layer 1" xmlns="http://www.w3.org/2000/svg" viewBox="0 0 48 48"><title>Painting</title><path d="M30.023,19.709l-1.885.134c-.092.006-.184.01-.276.01a3.853,3.853,0,0,1-2.725-6.576l2.6-2.6a3.889,3.889,0,0,0-.1-5.594,3.962,3.962,0,0,0-2.511-1.052C24.748,4.011,24.379,4,24,4,11.458,4,2,12.6,2,24s9.458,20,22,20a24.877,24.877,0,0,0,6.828-.941ZM7.5,20.5A3.5,3.5,0,1,1,11,24,3.5,3.5,0,0,1,7.5,20.5Zm6,13.5A3.5,3.5,0,1,1,17,30.5,3.5,3.5,0,0,1,13.5,34ZM24,39a3.5,3.5,0,1,1,3.5-3.5A3.5,3.5,0,0,1,24,39Z"/><path d="M41.821,19.25l-1.264-.18a4.935,4.935,0,0,0-.571-.042c0,.048.011.1.01.143l-.668,19.365A19.092,19.092,0,0,0,46,23.97,4.84,4.84,0,0,0,41.821,19.25Z"/><path d="M35,46h0a2.141,2.141,0,0,1-2.14-2.068L32,19.1A3,3,0,0,1,35,16h0a3,3,0,0,1,3,3.1l-.856,24.83A2.141,2.141,0,0,1,35,46Z"/><path d="M34,2c0,3-3,5-3,9a4,4,0,0,0,8,0C39,6,34,2,34,2Z"/></svg>