<?xml version="1.0" encoding="UTF-8" standalone="no"?> <svg width="64" height="64" viewBox="0 0 64 64" fill="none" xmlns="http://www.w3.org/2000/svg">
<path d="M39 26.22L31 27.82V32.18L39 33.78V26.22Z" fill="black"/>
<path d="M27 35C27 35.55 27.45 36 28 36C28.55 36 29 35.55 29 35V34H27V35Z" fill="black"/>
<path d="M27 32H29V28H27C25.9 28 25 28.9 25 30C25 31.1 25.9 32 27 32Z" fill="black"/>
<path d="M61.38 18.13L59.13 17.21L57.56 15.35C57.18 14.91 56.41 14.91 56.03 15.35L54.46 17.21L52.21 18.13C51.94 18.24 51.73 18.47 51.64 18.75C51.55 19.03 51.58 19.33 51.74 19.58L53.01 21.65L53.2 24.08C53.22 24.37 53.37 24.64 53.61 24.81C53.84 24.98 54.15 25.04 54.43 24.97L56.79 24.4L59.16 24.97C59.24 24.99 59.31 25 59.39 25C59.6 25 59.81 24.93 59.98 24.81C60.22 24.64 60.37 24.37 60.39 24.08L60.58 21.65L61.85 19.58C62.01 19.33 62.04 19.03 61.95 18.75C61.86 18.47 61.65 18.24 61.38 18.13Z" fill="black"/>
<path d="M61.9 35.57C61.73 35.22 61.38 35 61 35H48V25C48 22.24 45.76 20 43 20H21C18.24 20 16 22.24 16 25V35H3.00002C2.62002 35 2.27002 35.22 2.10002 35.57C1.93002 35.91 1.98002 36.32 2.22002 36.62L5.72002 41L2.22002 45.38C1.98002 45.68 1.93002 46.09 2.10002 46.43C2.27002 46.78 2.62002 47 3.00002 47H10V51C10 51.55 10.45 52 11 52H16V54C16 54.39 16.23 54.74 16.58 54.91L31.58 61.91C31.71 61.97 31.86 62 32 62C32.14 62 32.29 61.97 32.42 61.91L47.42 54.91C47.77 54.74 48 54.39 48 54V52H53C53.55 52 54 51.55 54 51V47H61C61.38 47 61.73 46.78 61.9 46.43C62.07 46.09 62.02 45.68 61.78 45.38L58.28 41L61.78 36.62C62.02 36.32 62.07 35.91 61.9 35.57ZM48 38.14L50.24 40H48V38.14ZM27 26H29.9L39.8 24.02C39.87 24.01 39.93 24 40 24C40.23 24 40.45 24.08 40.63 24.23C40.87 24.42 41 24.7 41 25V35C41 35.3 40.87 35.58 40.63 35.77C40.45 35.92 40.23 36 40 36C39.93 36 39.87 35.99 39.8 35.98L31 34.22V35C31 36.65 29.65 38 28 38C26.35 38 25 36.65 25 35V33.44C23.81 32.75 23 31.47 23 30C23 27.79 24.79 26 27 26ZM10.36 40.23C10.35 40.24 10.34 40.26 10.32 40.27C10.3 40.3 10.28 40.33 10.25 40.36C10.2 40.41 10.16 40.47 10.12 40.54C10.11 40.56 10.1 40.57 10.09 40.59C10.08 40.62 10.08 40.64 10.07 40.66C10.04 40.75 10.02 40.85 10.01 40.94C10.01 40.96 10 40.98 10 41V45H5.08002L7.78002 41.62C8.07002 41.26 8.07002 40.74 7.78002 40.38L5.08002 37H14.24L10.36 40.23ZM16 38.14V40H13.76L16 38.14ZM52 46V50H47H17H12V46V42H17H47H52V46ZM56.22 40.38C55.93 40.74 55.93 41.26 56.22 41.62L58.92 45H54V41C54 40.98 53.99 40.96 53.99 40.94C53.98 40.85 53.96 40.75 53.93 40.66C53.92 40.64 53.92 40.62 53.91 40.59C53.9 40.57 53.89 40.56 53.88 40.54C53.84 40.47 53.8 40.41 53.75 40.36C53.72 40.33 53.7 40.3 53.68 40.27C53.66 40.26 53.65 40.24 53.64 40.23L49.76 37H58.92L56.22 40.38Z" fill="black"/>
<path d="M43.2 15.5C43.22 15.8 43.37 16.06 43.61 16.24C43.78 16.36 43.99 16.43 44.19 16.43C44.27 16.43 44.35 16.42 44.43 16.4L46.79 15.83L49.16 16.4C49.44 16.47 49.74 16.41 49.98 16.24C50.22 16.06 50.37 15.8 50.39 15.5L50.58 13.08L51.85 11.01C52.01 10.76 52.04 10.45 51.95 10.17C51.86 9.88997 51.65 9.66997 51.38 9.55997L49.13 8.62997L47.56 6.77997C47.18 6.32997 46.41 6.32997 46.03 6.77997L44.46 8.62997L42.21 9.55997C41.94 9.66997 41.73 9.88997 41.64 10.17C41.55 10.45 41.58 10.76 41.74 11.01L43.01 13.08L43.2 15.5Z" fill="black"/>
<path d="M42 45H37C36.45 45 36 45.45 36 46C36 46.55 36.45 47 37 47H42C42.55 47 43 46.55 43 46C43 45.45 42.55 45 42 45Z" fill="black"/>
<path d="M27.48 13.93C27.5 14.22 27.65 14.49 27.89 14.66C28.12 14.84 28.42 14.9 28.71 14.83L32 14.03L35.29 14.83C35.37 14.85 35.45 14.85 35.53 14.85C35.74 14.85 35.94 14.79 36.11 14.66C36.35 14.49 36.5 14.22 36.52 13.93L36.78 10.55L38.56 7.66999C38.71 7.41999 38.75 7.11999 38.66 6.83999C38.57 6.55999 38.36 6.32999 38.09 6.21999L34.96 4.92999L32.76 2.34999C32.38 1.90999 31.62 1.90999 31.24 2.34999L29.04 4.92999L25.91 6.21999C25.64 6.32999 25.43 6.55999 25.34 6.83999C25.25 7.11999 25.29 7.41999 25.44 7.66999L27.22 10.55L27.48 13.93Z" fill="black"/>
<path d="M33 45H31C30.45 45 30 45.45 30 46C30 46.55 30.45 47 31 47H33C33.55 47 34 46.55 34 46C34 45.45 33.55 45 33 45Z" fill="black"/>
<path d="M27 45H21C20.45 45 20 45.45 20 46C20 46.55 20.45 47 21 47H27C27.55 47 28 46.55 28 46C28 45.45 27.55 45 27 45Z" fill="black"/>
<path d="M14.2 15.5C14.22 15.8 14.37 16.06 14.61 16.24C14.78 16.36 14.99 16.43 15.19 16.43C15.27 16.43 15.35 16.42 15.43 16.4L17.79 15.83L20.16 16.4C20.44 16.47 20.74 16.41 20.98 16.24C21.22 16.06 21.37 15.8 21.39 15.5L21.58 13.08L22.85 11.01C23.01 10.76 23.04 10.45 22.95 10.17C22.86 9.88997 22.65 9.66997 22.38 9.55997L20.13 8.62997L18.56 6.77997C18.18 6.32997 17.41 6.32997 17.03 6.77997L15.46 8.62997L13.21 9.55997C12.94 9.66997 12.73 9.88997 12.64 10.17C12.55 10.45 12.58 10.76 12.74 11.01L14.01 13.08L14.2 15.5Z" fill="black"/>
<path d="M3.42005 21.65L3.61005 24.08C3.63005 24.37 3.78005 24.64 4.02005 24.81C4.19005 24.93 4.40005 25 4.61005 25C4.69005 25 4.76005 24.99 4.84005 24.97L7.21005 24.4L9.57005 24.97C9.85005 25.04 10.16 24.98 10.39 24.81C10.63 24.64 10.78 24.37 10.8 24.08L10.99 21.65L12.26 19.58C12.42 19.33 12.45 19.03 12.36 18.75C12.27 18.47 12.06 18.24 11.79 18.13L9.54005 17.21L7.97005 15.35C7.59005 14.91 6.82005 14.91 6.44005 15.35L4.87005 17.21L2.62005 18.13C2.35005 18.24 2.14005 18.47 2.05005 18.75C1.96005 19.03 1.99005 19.33 2.15005 19.58L3.42005 21.65Z" fill="black"/>
</svg>
